<?xml version="1.0"?>
<svg xmlns="http://www.w3.org/2000/svg" xmlns:xlink="http://www.w3.org/1999/xlink" version="1.1" viewBox="0 0 172 172" width="32px" height="32px"><g fill="none" fill-rule="nonzero" stroke="none" stroke-width="1" stroke-linecap="butt" stroke-linejoin="miter" stroke-miterlimit="10" stroke-dasharray="" stroke-dashoffset="0" font-family="none" font-weight="none" font-size="none" text-anchor="none" style="mix-blend-mode: normal"><path d="M0,172v-172h172v172z" fill="none"/><g fill="#ffffff"><g id="surface1"><path d="M82.72461,32.45996c-8.90234,-0.08398 -15.62109,0.33594 -21.24805,3.23341c-2.30957,1.17578 -3.94726,2.6875 -5.20703,4.45117c-0.67187,0.88183 -1.30176,1.67969 -1.5957,3.52734c-0.16797,0.88183 -0.29395,2.35156 0.62987,3.94727c0.92383,1.63769 2.89747,2.72949 4.24122,2.93945c1.00781,0.12598 3.14941,1.00781 3.52734,1.51172c0.88183,1.25977 1.21777,2.18359 1.34375,2.6875c0.12597,0.50391 0.08398,0.16797 0.08398,0.16797v0.50391c0,0 0.33594,5.29102 0.12598,10.75c-0.12598,2.6875 -0.37793,5.50098 -0.79785,7.39063c-0.41992,1.88965 -1.46973,2.35156 0.04199,1.46973c-1.0498,0.62989 -0.67187,0.88183 -1.97362,0.20996c-1.34375,-0.62989 -4.8291,-3.56933 -9.40625,-11.7998c-4.57716,-8.27246 -7.89453,-12.55567 -8.6504,-13.47949c-0.29395,-0.83984 -1.00781,-2.56153 -3.44335,-4.45118c-3.14942,-2.43554 -6.38281,-2.47754 -6.38281,-2.47754l-0.29395,-0.04199h-23.47364c0,0 -1.34375,0.04199 -2.89746,0.37793c-1.55371,0.33594 -3.7793,0.71388 -5.87891,3.31739h-0.04199c-2.14161,2.72949 -1.76368,5.20703 -1.59571,6.71875c0.20996,1.55371 0.67188,2.77149 0.67188,2.77149l0.08398,0.25195l0.12598,0.25196c0,0 17.93066,38.25487 39.34668,61.56054c20.11425,21.91993 43.41992,21.5 43.41992,21.5h13.22754l0.29395,-0.04199c0,0 4.24121,0.20996 7.81054,-3.7793c1.80567,-2.05761 2.22558,-3.98925 2.43555,-5.41699c0.25195,-1.46973 0.25195,-2.64551 0.25195,-2.64551v0.33594c0,0 0.16797,-2.77148 0.92383,-5.66894c0.37793,-1.42774 0.92382,-2.85547 1.42773,-3.65332c0.25196,-0.46192 0.25196,-0.33594 0.33594,-0.46192c0.92383,0.67188 2.43555,2.22558 4.03125,4.19922c3.2754,3.90527 6.97071,9.32227 12.13574,13.05957c3.73731,2.64551 7.26466,3.82129 9.95216,4.24121c1.80566,0.29395 3.10742,0.25196 3.98925,0.16797l18.2666,-0.33594h0.16797c0,0 3.7793,-0.08398 7.55859,-2.47754c1.84766,-1.17578 3.98926,-3.31737 4.70313,-6.38281c0.75586,-3.06543 -0.08398,-6.38281 -1.84766,-9.44824c0.5879,1.0498 -0.12598,-0.33594 -0.67187,-1.42773c-0.5459,-1.0918 -1.38574,-2.56153 -2.64551,-4.40919c-2.43554,-3.61132 -6.46679,-8.69237 -13.14355,-15.15918c-3.14942,-3.02344 -5.16504,-4.70312 -6.4248,-5.87891c0.37793,-0.5459 0.41992,-0.58789 1.84766,-2.26757c2.26757,-2.64551 5.58496,-6.55078 9.78418,-12.3877c5.03906,-7.05469 8.69239,-12.80761 11.04395,-17.59473c2.35156,-4.74511 4.24121,-8.69239 2.1416,-13.56348c-1.13379,-2.6455 -3.14942,-3.65331 -4.61915,-4.2832c-1.51172,-0.62989 -2.85547,-0.88183 -4.11523,-1.0918c-2.47754,-0.37793 -4.66114,-0.37793 -4.66114,-0.37793l-21.29004,0.16797c-0.62989,-0.12598 -3.06543,-0.58789 -6.21484,1.42774c-3.10742,1.93164 -3.82129,3.98925 -3.98926,4.61914c-0.50391,0.71386 -4.03125,5.71094 -8.94433,14.44531c-4.95507,8.81836 -8.31445,11.21192 -8.73437,11.42188c-0.12598,-0.12598 0.12598,-0.08398 -0.46192,-0.41992c-0.25195,-0.20997 -0.50391,-0.37794 -0.71386,-2.64551c-0.16797,-2.26758 0.04199,-5.83692 0.04199,-10.03614c0,-9.02832 0.79785,-13.73145 0.33594,-18.2246c-0.20996,-2.26758 -1.13378,-5.03906 -3.14941,-6.88672c-2.01562,-1.80567 -4.19922,-2.47754 -6.4668,-3.06544c-3.56933,-0.88183 -8.39844,-1.25976 -15.36914,-1.34375zM82.64063,43.20996c6.50879,0.08399 11.08594,0.5879 12.76563,1.00781c1.42774,0.37794 1.6377,0.54591 1.59571,0.46192c0,0.08399 0,0.04199 0,0.16797c0.16797,1.80567 -0.37794,7.60058 -0.37794,17.13281c0,3.7373 -0.29394,7.34864 0,10.95996c0.29395,3.61133 1.59571,8.02051 5.417,10.62403h0.04199c-0.46192,-0.29395 4.8291,3.65331 9.86817,1.84766c5.03906,-1.84766 9.02831,-6.4668 14.69726,-16.50294c4.95508,-8.90234 8.6084,-13.89941 8.6084,-13.89941l0.33594,-0.50391l0.25196,-0.50391c0,0 -0.08399,-0.042 0,-0.08399l21.83594,-0.16797c0,0 1.51172,0 2.98145,0.25196c0.04199,0 0.08398,0 0.12597,0c-0.20996,0.08398 -0.04199,0.62987 -1.51172,3.61132c-1.88965,3.82129 -5.29101,9.28027 -10.12011,16.04102c-3.98926,5.50097 -6.9707,9.07031 -9.19629,11.67382c-2.22558,2.56152 -3.90527,3.7793 -4.99706,7.13868c-0.54591,1.63769 -0.41993,4.07324 0.37793,5.71094c0.75585,1.5957 1.67969,2.47753 2.60351,3.35938c1.84766,1.76367 4.03125,3.48534 7.22266,6.63476c6.25684,6.04688 9.78419,10.49805 11.75781,13.4375c1.00781,1.51172 1.59571,2.56152 1.97364,3.31739c0.37793,0.75585 0.12598,0.46192 0.96582,1.88965c0.71386,1.30176 0.58789,1.46973 0.58789,1.38574c-0.71386,0.41993 -2.51953,0.79785 -2.56152,0.79785l-18.2666,0.33594l-0.50391,0.12598c0,0 0.042,0.04199 -1.09179,-0.12598c-1.17578,-0.20996 -3.02344,-0.71386 -5.375,-2.39355c-2.89746,-2.05761 -6.55078,-6.84473 -10.16211,-11.21192c-1.76367,-2.1416 -3.56933,-4.24121 -5.83691,-5.9209c-2.26758,-1.67969 -5.83692,-3.2334 -9.49024,-2.01562c-3.14942,1.00781 -5.20703,3.31739 -6.50879,5.45898c-1.30175,2.18359 -2.05761,4.45118 -2.6455,6.50879c-1.0918,4.15723 -1.25977,7.89453 -1.25977,7.89453v0.33594c0,0 0,0.25196 -0.08398,0.62989c-0.20997,0.08398 -0.50391,0.29395 -0.67187,0.37793h-12.84961c0,0 -17.7627,0.92383 -35.18945,-17.97266c-18.64453,-20.36621 -35.23145,-54.42187 -36.61719,-57.27734h21.62597c0.20997,0.08399 0.96582,0.37793 0.88184,0.33594c-0.50391,-0.41992 0.25195,0.50391 0.25195,0.50391l0.33594,0.79785l0.5879,0.67188c0,0 3.31737,4.03125 8.0625,12.59766c5.08105,9.19629 9.36425,13.9834 14.15136,16.29297c4.7871,2.30957 9.82617,0.67188 11.96777,-0.5459c3.98926,-2.30957 4.45118,-5.54297 5.12305,-8.52442c0.67188,-2.98145 0.88183,-6.17285 1.00781,-9.28027c0.25195,-5.9629 -0.08399,-11.04395 -0.08399,-11.42188c-0.04199,-0.12598 -0.04199,-1.59571 -0.46192,-3.19141c-0.46191,-1.6377 -1.30175,-3.7793 -2.89746,-6.04687c-0.67187,-0.92383 -1.30176,-0.46192 -2.01562,-1.13379c2.98145,-0.83984 6.17285,-1.67969 12.76563,-1.59571z"/></g></g></g></svg>
