<?xml version="1.0"?>
<svg xmlns="http://www.w3.org/2000/svg" xmlns:xlink="http://www.w3.org/1999/xlink" version="1.1" viewBox="0 0 226 226" width="32px" height="32px"><g transform="translate(0.452,0.452) scale(0.996,0.996)"><g fill="none" fill-rule="none" stroke="none" stroke-width="1" stroke-linecap="butt" stroke-linejoin="none" stroke-miterlimit="10" stroke-dasharray="" stroke-dashoffset="0" font-family="none" font-weight="none" font-size="none" text-anchor="none" style="mix-blend-mode: normal"><g fill="#000000" fill-rule="evenodd" stroke="#ffffff" stroke-linejoin="round" opacity="true"><g id="surface1 1"><path d="M197.75,112.66895c-0.02759,46.54077 -37.87817,84.39136 -84.39136,84.39136h-0.02759c-14.125,-0.02759 -28.0293,-3.55884 -40.33349,-10.29028l-44.74756,11.75244l11.97315,-43.7268c-7.39355,-12.80078 -11.28345,-27.31202 -11.25586,-42.18188c0,-46.51319 37.87817,-84.36377 84.39135,-84.36377c22.5669,0 43.7544,8.80054 59.7002,24.74634c15.91822,15.9458 24.69116,37.1333 24.69116,59.67261zM183.48706,112.66895c0,-18.73218 -7.2832,-36.33325 -20.52539,-49.60302c-13.24219,-13.24219 -30.84327,-20.55298 -49.57544,-20.55298c-38.70581,0 -70.18359,31.4502 -70.18359,70.10084c0,13.24219 3.69677,26.15332 10.73169,37.32641l1.65527,2.64844l-7.09009,25.87744l26.56713,-6.95215l2.56568,1.51734c10.75927,6.3728 23.11865,9.76612 35.69873,9.76612h0.02759c38.65064,0 70.12842,-31.4502 70.12842,-70.12842zM155.87159,132.75293c0.52416,0.88281 0.52416,5.10376 -1.21387,10.01441c-1.76563,4.93823 -10.17994,9.43506 -14.23535,10.04199c-3.6416,0.52417 -8.24878,0.74487 -13.29737,-0.85523c-3.06226,-0.96558 -6.97973,-2.2622 -12.00073,-4.44165c-21.15991,-9.13159 -34.98145,-30.42945 -36.02978,-31.80884c-1.04834,-1.40698 -8.60742,-11.44898 -8.60742,-21.82202c0,-10.37305 5.43481,-15.4768 7.36597,-17.57348c1.93115,-2.12427 4.22095,-2.64844 5.62793,-2.64844c1.40698,0 2.81396,0 4.02783,0.05517c1.29663,0.08277 3.03467,-0.49658 4.74512,3.61402c1.76563,4.22095 5.98657,14.62158 6.51074,15.66992c0.52417,1.04834 0.88281,2.2898 0.19312,3.69677c-0.71729,1.40698 -1.07593,2.2898 -2.12427,3.50366c-1.04834,1.24145 -2.20703,2.75879 -3.17261,3.69678c-1.04834,1.04834 -2.15186,2.17944 -0.9104,4.30371c1.21387,2.09668 5.4624,9.02123 11.72485,14.59399c8.05566,7.20044 14.84228,9.43506 16.96655,10.4834c2.09668,1.04834 3.33813,0.85523 4.552,-0.52417c1.24145,-1.40698 5.26929,-6.1521 6.67627,-8.27637c1.40698,-2.09668 2.81397,-1.76562 4.74512,-1.04834c1.93116,0.6897 12.3042,5.79345 14.40088,6.8418c2.12427,1.07592 3.53125,1.60009 4.05542,2.48291z"/></g></g><path d="M0,226v-226h226v226z" fill="none" fill-rule="nonzero" stroke="none" stroke-linejoin="miter"/><g id="original-icon" fill="#ffffff" fill-rule="evenodd" stroke="none" stroke-linejoin="miter"><g id="surface1"><path d="M173.05884,52.99634c-15.9458,-15.9458 -37.1333,-24.74634 -59.7002,-24.74634c-46.51318,0 -84.39135,37.85059 -84.39135,84.36377c-0.02759,14.86987 3.8623,29.3811 11.25586,42.18188l-11.97315,43.7268l44.74756,-11.75244c12.3042,6.73145 26.20849,10.2627 40.33349,10.29028h0.02759c46.51319,0 84.36377,-37.85059 84.39136,-84.39136c0,-22.5393 -8.77295,-43.7268 -24.69116,-59.67261zM113.35864,182.79737h-0.02759c-12.58008,0 -24.93945,-3.39331 -35.69873,-9.76612l-2.56568,-1.51734l-26.56713,6.95215l7.09009,-25.87744l-1.65527,-2.64844c-7.03491,-11.17309 -10.73169,-24.08423 -10.73169,-37.32641c0,-38.65064 31.47778,-70.10084 70.18359,-70.10084c18.73217,0 36.33325,7.3108 49.57544,20.55298c13.24219,13.26977 20.52539,30.87084 20.52539,49.60302c0,38.67823 -31.47778,70.12842 -70.12842,70.12842zM151.81616,130.27002c-2.09668,-1.04834 -12.46973,-6.1521 -14.40088,-6.8418c-1.93115,-0.71729 -3.33813,-1.04834 -4.74512,1.04834c-1.40698,2.12427 -5.43481,6.86938 -6.67627,8.27637c-1.21387,1.3794 -2.45532,1.57251 -4.552,0.52417c-2.12427,-1.04834 -8.91089,-3.28296 -16.96655,-10.4834c-6.26245,-5.57276 -10.51098,-12.49731 -11.72485,-14.59399c-1.24146,-2.12427 -0.13794,-3.25537 0.9104,-4.30371c0.96558,-0.93799 2.12427,-2.45533 3.17261,-3.69678c1.04834,-1.21387 1.40698,-2.09668 2.12427,-3.50366c0.6897,-1.40698 0.33105,-2.64844 -0.19312,-3.69677c-0.52417,-1.04834 -4.74512,-11.44898 -6.51074,-15.66992c-1.71045,-4.11059 -3.44848,-3.53125 -4.74512,-3.61402c-1.21387,-0.05517 -2.62085,-0.05517 -4.02783,-0.05517c-1.40698,0 -3.69678,0.52416 -5.62793,2.64844c-1.93116,2.09668 -7.36597,7.20044 -7.36597,17.57348c0,10.37305 7.55908,20.41504 8.60742,21.82202c1.04834,1.37939 14.86987,22.67724 36.02978,31.80884c5.021,2.17945 8.93848,3.47607 12.00073,4.44165c5.04859,1.6001 9.65577,1.3794 13.29737,0.85523c4.05541,-0.60694 12.46973,-5.10376 14.23535,-10.04199c1.73803,-4.91065 1.73803,-9.13159 1.21387,-10.01441c-0.52417,-0.88281 -1.93116,-1.40698 -4.05542,-2.48291z"/></g></g><path d="M0,226v-226h226v226z" fill="none" fill-rule="nonzero" stroke="none" stroke-linejoin="miter"/><path d="M4.52,221.48v-216.96h216.96v216.96z" fill="none" fill-rule="nonzero" stroke="none" stroke-linejoin="miter"/><path d="M0,226v-226h226v226z" fill="none" fill-rule="nonzero" stroke="none" stroke-linejoin="miter"/><path d="M9.04,216.96v-207.92h207.92v207.92z" fill="none" fill-rule="nonzero" stroke="none" stroke-linejoin="miter"/><path d="M0,226v-226h226v226z" fill="none" fill-rule="nonzero" stroke="none" stroke-linejoin="miter"/><path d="M13.56,212.44v-198.88h198.88v198.88z" fill="none" fill-rule="nonzero" stroke="none" stroke-linejoin="miter"/><path d="M0,226v-226h226v226z" fill="none" fill-rule="nonzero" stroke="none" stroke-linejoin="miter"/><path d="M18.08,207.92v-189.84h189.84v189.84z" fill="none" fill-rule="nonzero" stroke="none" stroke-linejoin="miter"/><path d="M0,226v-226h226v226z" fill="none" fill-rule="nonzero" stroke="none" stroke-linejoin="miter"/><path d="M22.6,203.4v-180.8h180.8v180.8z" fill="none" fill-rule="nonzero" stroke="none" stroke-linejoin="miter"/><path d="M0,226v-226h226v226z" fill="none" fill-rule="nonzero" stroke="none" stroke-linejoin="miter"/><path d="M27.12,198.88v-171.76h171.76v171.76z" fill="none" fill-rule="nonzero" stroke="none" stroke-linejoin="miter"/><path d="M0,226v-226h226v226z" fill="none" fill-rule="nonzero" stroke="none" stroke-linejoin="miter"/><path d="M31.64,194.36v-162.72h162.72v162.72z" fill="none" fill-rule="nonzero" stroke="none" stroke-linejoin="miter"/><path d="M0,226v-226h226v226z" fill="none" fill-rule="nonzero" stroke="none" stroke-linejoin="miter"/><path d="M36.16,189.84v-153.68h153.68v153.68z" fill="none" fill-rule="nonzero" stroke="none" stroke-linejoin="miter"/><path d="M0,226v-226h226v226z" fill="none" fill-rule="nonzero" stroke="none" stroke-linejoin="miter"/><path d="M40.68,185.32v-144.64h144.64v144.64z" fill="none" fill-rule="nonzero" stroke="none" stroke-linejoin="miter"/><path d="M0,226v-226h226v226z" fill="none" fill-rule="nonzero" stroke="none" stroke-linejoin="miter"/><path d="M45.2,180.8v-135.6h135.6v135.6z" fill="none" fill-rule="nonzero" stroke="none" stroke-linejoin="miter"/><path d="M0,226v-226h226v226z" fill="none" fill-rule="nonzero" stroke="none" stroke-linejoin="miter"/><path d="M40.68,185.32v-144.64h144.64v144.64z" fill="none" fill-rule="nonzero" stroke="none" stroke-linejoin="miter"/><path d="M0,226v-226h226v226z" fill="none" fill-rule="nonzero" stroke="none" stroke-linejoin="miter"/><path d="M27.12,198.88v-171.76h171.76v171.76z" fill="none" fill-rule="nonzero" stroke="none" stroke-linejoin="miter"/><path d="M0,226v-226h226v226z" fill="none" fill-rule="nonzero" stroke="none" stroke-linejoin="miter"/><path d="M18.08,207.92v-189.84h189.84v189.84z" fill="none" fill-rule="nonzero" stroke="none" stroke-linejoin="miter"/><path d="M0,226v-226h226v226z" fill="none" fill-rule="nonzero" stroke="none" stroke-linejoin="miter"/><path d="M13.56,212.44v-198.88h198.88v198.88z" fill="none" fill-rule="nonzero" stroke="none" stroke-linejoin="miter"/><path d="M0,226v-226h226v226z" fill="none" fill-rule="nonzero" stroke="none" stroke-linejoin="miter"/><path d="M9.04,216.96v-207.92h207.92v207.92z" fill="none" fill-rule="nonzero" stroke="none" stroke-linejoin="miter"/><path d="M0,226v-226h226v226z" fill="none" fill-rule="nonzero" stroke="none" stroke-linejoin="miter"/><path d="M4.52,221.48v-216.96h216.96v216.96z" fill="none" fill-rule="nonzero" stroke="none" stroke-linejoin="miter"/><path d="" fill="none" fill-rule="nonzero" stroke="none" stroke-linejoin="miter"/><path d="" fill="none" fill-rule="nonzero" stroke="none" stroke-linejoin="miter"/><path d="M113,226c-62.40818,0 -113,-50.59182 -113,-113v0c0,-62.40818 50.59182,-113 113,-113v0c62.40818,0 113,50.59182 113,113v0c0,62.40818 -50.59182,113 -113,113z" fill="none" fill-rule="nonzero" stroke="none" stroke-linejoin="miter"/><path d="M113,221.48c-59.91185,0 -108.48,-48.56815 -108.48,-108.48v0c0,-59.91185 48.56815,-108.48 108.48,-108.48h0c59.91185,0 108.48,48.56815 108.48,108.48v0c0,59.91185 -48.56815,108.48 -108.48,108.48z" fill="none" fill-rule="nonzero" stroke="none" stroke-linejoin="miter"/><path d="M113,226c-62.40818,0 -113,-50.59182 -113,-113v0c0,-62.40818 50.59182,-113 113,-113v0c62.40818,0 113,50.59182 113,113v0c0,62.40818 -50.59182,113 -113,113z" fill="none" fill-rule="nonzero" stroke="none" stroke-linejoin="miter"/><path d="M113,216.96c-57.41552,0 -103.96,-46.54448 -103.96,-103.96v0c0,-57.41552 46.54448,-103.96 103.96,-103.96v0c57.41552,0 103.96,46.54448 103.96,103.96v0c0,57.41552 -46.54448,103.96 -103.96,103.96z" fill="none" fill-rule="nonzero" stroke="none" stroke-linejoin="miter"/><path d="M113,226c-62.40818,0 -113,-50.59182 -113,-113v0c0,-62.40818 50.59182,-113 113,-113v0c62.40818,0 113,50.59182 113,113v0c0,62.40818 -50.59182,113 -113,113z" fill="none" fill-rule="nonzero" stroke="none" stroke-linejoin="miter"/><path d="M113,207.92c-52.42287,0 -94.92,-42.49713 -94.92,-94.92v0c0,-52.42287 42.49713,-94.92 94.92,-94.92h0c52.42287,0 94.92,42.49713 94.92,94.92v0c0,52.42287 -42.49713,94.92 -94.92,94.92z" fill="none" fill-rule="nonzero" stroke="none" stroke-linejoin="miter"/><path d="M113,226c-62.40818,0 -113,-50.59182 -113,-113v0c0,-62.40818 50.59182,-113 113,-113v0c62.40818,0 113,50.59182 113,113v0c0,62.40818 -50.59182,113 -113,113z" fill="none" fill-rule="nonzero" stroke="none" stroke-linejoin="miter"/><path d="M113,203.4c-49.92654,0 -90.4,-40.47346 -90.4,-90.4v0c0,-49.92654 40.47346,-90.4 90.4,-90.4v0c49.92654,0 90.4,40.47346 90.4,90.4v0c0,49.92654 -40.47346,90.4 -90.4,90.4z" fill="none" fill-rule="nonzero" stroke="none" stroke-linejoin="miter"/><path d="M113,226c-62.40818,0 -113,-50.59182 -113,-113v0c0,-62.40818 50.59182,-113 113,-113v0c62.40818,0 113,50.59182 113,113v0c0,62.40818 -50.59182,113 -113,113z" fill="none" fill-rule="nonzero" stroke="none" stroke-linejoin="miter"/><path d="M113,207.92c-52.42287,0 -94.92,-42.49713 -94.92,-94.92v0c0,-52.42287 42.49713,-94.92 94.92,-94.92h0c52.42287,0 94.92,42.49713 94.92,94.92v0c0,52.42287 -42.49713,94.92 -94.92,94.92z" fill="none" fill-rule="nonzero" stroke="none" stroke-linejoin="miter"/><path d="M113,226c-62.40818,0 -113,-50.59182 -113,-113v0c0,-62.40818 50.59182,-113 113,-113v0c62.40818,0 113,50.59182 113,113v0c0,62.40818 -50.59182,113 -113,113z" fill="none" fill-rule="nonzero" stroke="none" stroke-linejoin="miter"/><path d="M113,216.96c-57.41552,0 -103.96,-46.54448 -103.96,-103.96v0c0,-57.41552 46.54448,-103.96 103.96,-103.96v0c57.41552,0 103.96,46.54448 103.96,103.96v0c0,57.41552 -46.54448,103.96 -103.96,103.96z" fill="none" fill-rule="nonzero" stroke="none" stroke-linejoin="miter"/><path d="M113,226c-62.40818,0 -113,-50.59182 -113,-113v0c0,-62.40818 50.59182,-113 113,-113v0c62.40818,0 113,50.59182 113,113v0c0,62.40818 -50.59182,113 -113,113z" fill="none" fill-rule="nonzero" stroke="none" stroke-linejoin="miter"/><path d="M113,221.48c-59.91185,0 -108.48,-48.56815 -108.48,-108.48v0c0,-59.91185 48.56815,-108.48 108.48,-108.48h0c59.91185,0 108.48,48.56815 108.48,108.48v0c0,59.91185 -48.56815,108.48 -108.48,108.48z" fill="none" fill-rule="nonzero" stroke="none" stroke-linejoin="miter"/><path d="M113,224.87c-61.78409,0 -111.87,-50.08591 -111.87,-111.87v0c0,-61.78409 50.08591,-111.87 111.87,-111.87v0c61.78409,0 111.87,50.08591 111.87,111.87v0c0,61.78409 -50.08591,111.87 -111.87,111.87z" fill="none" fill-rule="nonzero" stroke="none" stroke-linejoin="miter"/><path d="M113,220.35c-59.28777,0 -107.35,-48.06223 -107.35,-107.35v0c0,-59.28777 48.06223,-107.35 107.35,-107.35h0c59.28777,0 107.35,48.06223 107.35,107.35v0c0,59.28777 -48.06223,107.35 -107.35,107.35z" fill="none" fill-rule="nonzero" stroke="none" stroke-linejoin="miter"/><path d="M113,209.05c-53.04695,0 -96.05,-43.00305 -96.05,-96.05v0c0,-53.04695 43.00305,-96.05 96.05,-96.05h0c53.04695,0 96.05,43.00305 96.05,96.05v0c0,53.04695 -43.00305,96.05 -96.05,96.05z" fill="none" fill-rule="nonzero" stroke="none" stroke-linejoin="miter"/><path d="M113,204.53c-50.55062,0 -91.53,-40.97938 -91.53,-91.53v0c0,-50.55062 40.97938,-91.53 91.53,-91.53v0c50.55062,0 91.53,40.97938 91.53,91.53v0c0,50.55062 -40.97938,91.53 -91.53,91.53z" fill="none" fill-rule="nonzero" stroke="none" stroke-linejoin="miter"/><path d="M113,198.88c-47.43021,0 -85.88,-38.44979 -85.88,-85.88v0c0,-47.43021 38.44979,-85.88 85.88,-85.88v0c47.43021,0 85.88,38.44979 85.88,85.88v0c0,47.43021 -38.44979,85.88 -85.88,85.88z" fill="none" fill-rule="nonzero" stroke="none" stroke-linejoin="miter"/><path d="M113,194.36c-44.93389,0 -81.36,-36.42611 -81.36,-81.36v0c0,-44.93389 36.42611,-81.36 81.36,-81.36h0c44.93389,0 81.36,36.42611 81.36,81.36v0c0,44.93389 -36.42611,81.36 -81.36,81.36z" fill="none" fill-rule="nonzero" stroke="none" stroke-linejoin="miter"/><path d="M113,186.45c-40.56531,0 -73.45,-32.88469 -73.45,-73.45v0c0,-40.56531 32.88469,-73.45 73.45,-73.45h0c40.56531,0 73.45,32.88469 73.45,73.45v0c0,40.56531 -32.88469,73.45 -73.45,73.45z" fill="none" fill-rule="nonzero" stroke="none" stroke-linejoin="miter"/><path d="M113,181.93c-38.06899,0 -68.93,-30.86101 -68.93,-68.93v0c0,-38.06899 30.86101,-68.93 68.93,-68.93v0c38.06899,0 68.93,30.86101 68.93,68.93v0c0,38.06899 -30.86101,68.93 -68.93,68.93z" fill="none" fill-rule="nonzero" stroke="none" stroke-linejoin="miter"/><path d="M113,176.28c-34.94858,0 -63.28,-28.33142 -63.28,-63.28v0c0,-34.94858 28.33142,-63.28 63.28,-63.28v0c34.94858,0 63.28,28.33142 63.28,63.28v0c0,34.94858 -28.33142,63.28 -63.28,63.28z" fill="none" fill-rule="nonzero" stroke="none" stroke-linejoin="miter"/><path d="M113,171.76c-32.45225,0 -58.76,-26.30775 -58.76,-58.76v0c0,-32.45225 26.30775,-58.76 58.76,-58.76h0c32.45225,0 58.76,26.30775 58.76,58.76v0c0,32.45225 -26.30775,58.76 -58.76,58.76z" fill="none" fill-rule="nonzero" stroke="none" stroke-linejoin="miter"/><path d="M113,167.24c-29.95592,0 -54.24,-24.28408 -54.24,-54.24v0c0,-29.95592 24.28408,-54.24 54.24,-54.24v0c29.95592,0 54.24,24.28408 54.24,54.24v0c0,29.95592 -24.28408,54.24 -54.24,54.24z" fill="none" fill-rule="nonzero" stroke="none" stroke-linejoin="miter"/><path d="M113,162.72c-27.4596,0 -49.72,-22.2604 -49.72,-49.72v0c0,-27.4596 22.2604,-49.72 49.72,-49.72v0c27.4596,0 49.72,22.2604 49.72,49.72v0c0,27.4596 -22.2604,49.72 -49.72,49.72z" fill="none" fill-rule="nonzero" stroke="none" stroke-linejoin="miter"/><path d="M113,160.46c-26.21143,0 -47.46,-21.24857 -47.46,-47.46v0c0,-26.21143 21.24857,-47.46 47.46,-47.46h0c26.21143,0 47.46,21.24857 47.46,47.46v0c0,26.21143 -21.24857,47.46 -47.46,47.46z" fill="none" fill-rule="nonzero" stroke="none" stroke-linejoin="miter"/><path d="M113,155.94c-23.71511,0 -42.94,-19.22489 -42.94,-42.94v0c0,-23.71511 19.22489,-42.94 42.94,-42.94v0c23.71511,0 42.94,19.22489 42.94,42.94v0c0,23.71511 -19.22489,42.94 -42.94,42.94z" fill="none" fill-rule="nonzero" stroke="none" stroke-linejoin="miter"/><path d="M113,127.69c-8.11306,0 -14.69,-6.57694 -14.69,-14.69v0c0,-8.11306 6.57694,-14.69 14.69,-14.69v0c8.11306,0 14.69,6.57694 14.69,14.69v0c0,8.11306 -6.57694,14.69 -14.69,14.69z" fill="none" fill-rule="nonzero" stroke="none" stroke-linejoin="miter"/><path d="M113,123.17c-5.61674,0 -10.17,-4.55326 -10.17,-10.17v0c0,-5.61674 4.55326,-10.17 10.17,-10.17v0c5.61674,0 10.17,4.55326 10.17,10.17v0c0,5.61674 -4.55326,10.17 -10.17,10.17z" fill="none" fill-rule="nonzero" stroke="none" stroke-linejoin="miter"/><path d="M113,120.91c-4.36857,0 -7.91,-3.54143 -7.91,-7.91v0c0,-4.36857 3.54143,-7.91 7.91,-7.91v0c4.36857,0 7.91,3.54143 7.91,7.91v0c0,4.36857 -3.54143,7.91 -7.91,7.91z" fill="none" fill-rule="nonzero" stroke="none" stroke-linejoin="miter"/><path d="M113,116.39c-1.87225,0 -3.39,-1.51775 -3.39,-3.39v0c0,-1.87225 1.51775,-3.39 3.39,-3.39v0c1.87225,0 3.39,1.51775 3.39,3.39v0c0,1.87225 -1.51775,3.39 -3.39,3.39z" fill="none" fill-rule="nonzero" stroke="none" stroke-linejoin="miter"/><path d="M113,135.6c-12.48164,0 -22.6,-10.11836 -22.6,-22.6v0c0,-12.48164 10.11836,-22.6 22.6,-22.6h0c12.48164,0 22.6,10.11836 22.6,22.6v0c0,12.48164 -10.11836,22.6 -22.6,22.6z" fill="none" fill-rule="nonzero" stroke="none" stroke-linejoin="miter"/><path d="M113,131.08c-9.98531,0 -18.08,-8.09469 -18.08,-18.08v0c0,-9.98531 8.09469,-18.08 18.08,-18.08h0c9.98531,0 18.08,8.09469 18.08,18.08v0c0,9.98531 -8.09469,18.08 -18.08,18.08z" fill="none" fill-rule="nonzero" stroke="none" stroke-linejoin="miter"/><path d="M113,159.33c-25.58735,0 -46.33,-20.74265 -46.33,-46.33v0c0,-25.58735 20.74265,-46.33 46.33,-46.33h0c25.58735,0 46.33,20.74265 46.33,46.33v0c0,25.58735 -20.74265,46.33 -46.33,46.33z" fill="none" fill-rule="nonzero" stroke="none" stroke-linejoin="miter"/><path d="M113,154.81c-23.09103,0 -41.81,-18.71897 -41.81,-41.81v0c0,-23.09103 18.71897,-41.81 41.81,-41.81v0c23.09103,0 41.81,18.71897 41.81,41.81v0c0,23.09103 -18.71897,41.81 -41.81,41.81z" fill="none" fill-rule="nonzero" stroke="none" stroke-linejoin="miter"/><path d="M113,188.71c-41.81348,0 -75.71,-33.89652 -75.71,-75.71v0c0,-41.81348 33.89652,-75.71 75.71,-75.71h0c41.81348,0 75.71,33.89652 75.71,75.71v0c0,41.81348 -33.89652,75.71 -75.71,75.71z" fill="none" fill-rule="nonzero" stroke="none" stroke-linejoin="miter"/><path d="M113,184.19c-39.31715,0 -71.19,-31.87285 -71.19,-71.19v0c0,-39.31715 31.87285,-71.19 71.19,-71.19v0c39.31715,0 71.19,31.87285 71.19,71.19v0c0,39.31715 -31.87285,71.19 -71.19,71.19z" fill="none" fill-rule="nonzero" stroke="none" stroke-linejoin="miter"/><path d="M113,212.44c-54.9192,0 -99.44,-44.5208 -99.44,-99.44v0c0,-54.9192 44.5208,-99.44 99.44,-99.44v0c54.9192,0 99.44,44.5208 99.44,99.44v0c0,54.9192 -44.5208,99.44 -99.44,99.44z" fill="none" fill-rule="nonzero" stroke="none" stroke-linejoin="miter"/><path d="M113,207.92c-52.42287,0 -94.92,-42.49713 -94.92,-94.92v0c0,-52.42287 42.49713,-94.92 94.92,-94.92h0c52.42287,0 94.92,42.49713 94.92,94.92v0c0,52.42287 -42.49713,94.92 -94.92,94.92z" fill="none" fill-rule="nonzero" stroke="none" stroke-linejoin="miter"/><path d="M113,220.35c-59.28777,0 -107.35,-48.06223 -107.35,-107.35v0c0,-59.28777 48.06223,-107.35 107.35,-107.35v0c59.28777,0 107.35,48.06223 107.35,107.35v0c0,59.28777 -48.06223,107.35 -107.35,107.35z" fill="none" fill-rule="nonzero" stroke="none" stroke-linejoin="miter"/><path d="M113,215.83c-56.79144,0 -102.83,-46.03856 -102.83,-102.83v0c0,-56.79144 46.03856,-102.83 102.83,-102.83h0c56.79144,0 102.83,46.03856 102.83,102.83v0c0,56.79144 -46.03856,102.83 -102.83,102.83z" fill="none" fill-rule="nonzero" stroke="none" stroke-linejoin="miter"/><path d="M113,222.61c-60.53593,0 -109.61,-49.07407 -109.61,-109.61v0c0,-60.53593 49.07407,-109.61 109.61,-109.61h0c60.53593,0 109.61,49.07407 109.61,109.61v0c0,60.53593 -49.07407,109.61 -109.61,109.61z" fill="none" fill-rule="nonzero" stroke="none" stroke-linejoin="miter"/><path d="M113,218.09c-58.0396,0 -105.09,-47.0504 -105.09,-105.09v0c0,-58.0396 47.0504,-105.09 105.09,-105.09v0c58.0396,0 105.09,47.0504 105.09,105.09v0c0,58.0396 -47.0504,105.09 -105.09,105.09z" fill="none" fill-rule="nonzero" stroke="none" stroke-linejoin="miter"/><path d="M113,226c-62.40818,0 -113,-50.59182 -113,-113v0c0,-62.40818 50.59182,-113 113,-113v0c62.40818,0 113,50.59182 113,113v0c0,62.40818 -50.59182,113 -113,113z" fill="none" fill-rule="nonzero" stroke="none" stroke-linejoin="miter"/><path d="M113,221.48c-59.91185,0 -108.48,-48.56815 -108.48,-108.48v0c0,-59.91185 48.56815,-108.48 108.48,-108.48h0c59.91185,0 108.48,48.56815 108.48,108.48v0c0,59.91185 -48.56815,108.48 -108.48,108.48z" fill="none" fill-rule="nonzero" stroke="none" stroke-linejoin="miter"/><path d="M113,233.91c-66.77675,0 -120.91,-54.13325 -120.91,-120.91v0c0,-66.77675 54.13325,-120.91 120.91,-120.91v0c66.77675,0 120.91,54.13325 120.91,120.91v0c0,66.77675 -54.13325,120.91 -120.91,120.91z" fill="none" fill-rule="nonzero" stroke="none" stroke-linejoin="miter"/><path d="M113,229.39c-64.28042,0 -116.39,-52.10958 -116.39,-116.39v0c0,-64.28042 52.10958,-116.39 116.39,-116.39h0c64.28042,0 116.39,52.10958 116.39,116.39v0c0,64.28042 -52.10958,116.39 -116.39,116.39z" fill="none" fill-rule="nonzero" stroke="none" stroke-linejoin="miter"/><path d="M113,233.91c-66.77675,0 -120.91,-54.13325 -120.91,-120.91v0c0,-66.77675 54.13325,-120.91 120.91,-120.91v0c66.77675,0 120.91,54.13325 120.91,120.91v0c0,66.77675 -54.13325,120.91 -120.91,120.91z" fill="none" fill-rule="nonzero" stroke="none" stroke-linejoin="miter"/><path d="M113,229.39c-64.28042,0 -116.39,-52.10958 -116.39,-116.39v0c0,-64.28042 52.10958,-116.39 116.39,-116.39h0c64.28042,0 116.39,52.10958 116.39,116.39v0c0,64.28042 -52.10958,116.39 -116.39,116.39z" fill="none" fill-rule="nonzero" stroke="none" stroke-linejoin="miter"/><path d="M113,233.91c-66.77675,0 -120.91,-54.13325 -120.91,-120.91v0c0,-66.77675 54.13325,-120.91 120.91,-120.91v0c66.77675,0 120.91,54.13325 120.91,120.91v0c0,66.77675 -54.13325,120.91 -120.91,120.91z" fill="none" fill-rule="nonzero" stroke="none" stroke-linejoin="miter"/><path d="M113,229.39c-64.28042,0 -116.39,-52.10958 -116.39,-116.39v0c0,-64.28042 52.10958,-116.39 116.39,-116.39h0c64.28042,0 116.39,52.10958 116.39,116.39v0c0,64.28042 -52.10958,116.39 -116.39,116.39z" fill="none" fill-rule="nonzero" stroke="none" stroke-linejoin="miter"/><path d="M113,233.91c-66.77675,0 -120.91,-54.13325 -120.91,-120.91v0c0,-66.77675 54.13325,-120.91 120.91,-120.91v0c66.77675,0 120.91,54.13325 120.91,120.91v0c0,66.77675 -54.13325,120.91 -120.91,120.91z" fill="none" fill-rule="nonzero" stroke="none" stroke-linejoin="miter"/><path d="M113,229.39c-64.28042,0 -116.39,-52.10958 -116.39,-116.39v0c0,-64.28042 52.10958,-116.39 116.39,-116.39h0c64.28042,0 116.39,52.10958 116.39,116.39v0c0,64.28042 -52.10958,116.39 -116.39,116.39z" fill="none" fill-rule="nonzero" stroke="none" stroke-linejoin="miter"/><path d="M113,233.91c-66.77675,0 -120.91,-54.13325 -120.91,-120.91v0c0,-66.77675 54.13325,-120.91 120.91,-120.91v0c66.77675,0 120.91,54.13325 120.91,120.91v0c0,66.77675 -54.13325,120.91 -120.91,120.91z" fill="none" fill-rule="nonzero" stroke="none" stroke-linejoin="miter"/><path d="M113,229.39c-64.28042,0 -116.39,-52.10958 -116.39,-116.39v0c0,-64.28042 52.10958,-116.39 116.39,-116.39h0c64.28042,0 116.39,52.10958 116.39,116.39v0c0,64.28042 -52.10958,116.39 -116.39,116.39z" fill="none" fill-rule="nonzero" stroke="none" stroke-linejoin="miter"/><path d="M113,233.91c-66.77675,0 -120.91,-54.13325 -120.91,-120.91v0c0,-66.77675 54.13325,-120.91 120.91,-120.91v0c66.77675,0 120.91,54.13325 120.91,120.91v0c0,66.77675 -54.13325,120.91 -120.91,120.91z" fill="none" fill-rule="nonzero" stroke="none" stroke-linejoin="miter"/><path d="M113,229.39c-64.28042,0 -116.39,-52.10958 -116.39,-116.39v0c0,-64.28042 52.10958,-116.39 116.39,-116.39h0c64.28042,0 116.39,52.10958 116.39,116.39v0c0,64.28042 -52.10958,116.39 -116.39,116.39z" fill="none" fill-rule="nonzero" stroke="none" stroke-linejoin="miter"/><path d="M113,233.91c-66.77675,0 -120.91,-54.13325 -120.91,-120.91v0c0,-66.77675 54.13325,-120.91 120.91,-120.91v0c66.77675,0 120.91,54.13325 120.91,120.91v0c0,66.77675 -54.13325,120.91 -120.91,120.91z" fill="none" fill-rule="nonzero" stroke="none" stroke-linejoin="miter"/><path d="M113,229.39c-64.28042,0 -116.39,-52.10958 -116.39,-116.39v0c0,-64.28042 52.10958,-116.39 116.39,-116.39h0c64.28042,0 116.39,52.10958 116.39,116.39v0c0,64.28042 -52.10958,116.39 -116.39,116.39z" fill="none" fill-rule="nonzero" stroke="none" stroke-linejoin="miter"/><path d="M113,233.91c-66.77675,0 -120.91,-54.13325 -120.91,-120.91v0c0,-66.77675 54.13325,-120.91 120.91,-120.91v0c66.77675,0 120.91,54.13325 120.91,120.91v0c0,66.77675 -54.13325,120.91 -120.91,120.91z" fill="none" fill-rule="nonzero" stroke="none" stroke-linejoin="miter"/><path d="M113,229.39c-64.28042,0 -116.39,-52.10958 -116.39,-116.39v0c0,-64.28042 52.10958,-116.39 116.39,-116.39h0c64.28042,0 116.39,52.10958 116.39,116.39v0c0,64.28042 -52.10958,116.39 -116.39,116.39z" fill="none" fill-rule="nonzero" stroke="none" stroke-linejoin="miter"/><path d="M113,233.91c-66.77675,0 -120.91,-54.13325 -120.91,-120.91v0c0,-66.77675 54.13325,-120.91 120.91,-120.91v0c66.77675,0 120.91,54.13325 120.91,120.91v0c0,66.77675 -54.13325,120.91 -120.91,120.91z" fill="none" fill-rule="nonzero" stroke="none" stroke-linejoin="miter"/><path d="M113,229.39c-64.28042,0 -116.39,-52.10958 -116.39,-116.39v0c0,-64.28042 52.10958,-116.39 116.39,-116.39h0c64.28042,0 116.39,52.10958 116.39,116.39v0c0,64.28042 -52.10958,116.39 -116.39,116.39z" fill="none" fill-rule="nonzero" stroke="none" stroke-linejoin="miter"/><path d="M113,233.91c-66.77675,0 -120.91,-54.13325 -120.91,-120.91v0c0,-66.77675 54.13325,-120.91 120.91,-120.91v0c66.77675,0 120.91,54.13325 120.91,120.91v0c0,66.77675 -54.13325,120.91 -120.91,120.91z" fill="none" fill-rule="nonzero" stroke="none" stroke-linejoin="miter"/><path d="M113,229.39c-64.28042,0 -116.39,-52.10958 -116.39,-116.39v0c0,-64.28042 52.10958,-116.39 116.39,-116.39h0c64.28042,0 116.39,52.10958 116.39,116.39v0c0,64.28042 -52.10958,116.39 -116.39,116.39z" fill="none" fill-rule="nonzero" stroke="none" stroke-linejoin="miter"/><path d="M113,233.91c-66.77675,0 -120.91,-54.13325 -120.91,-120.91v0c0,-66.77675 54.13325,-120.91 120.91,-120.91v0c66.77675,0 120.91,54.13325 120.91,120.91v0c0,66.77675 -54.13325,120.91 -120.91,120.91z" fill="none" fill-rule="nonzero" stroke="none" stroke-linejoin="miter"/><path d="M113,229.39c-64.28042,0 -116.39,-52.10958 -116.39,-116.39v0c0,-64.28042 52.10958,-116.39 116.39,-116.39h0c64.28042,0 116.39,52.10958 116.39,116.39v0c0,64.28042 -52.10958,116.39 -116.39,116.39z" fill="none" fill-rule="nonzero" stroke="none" stroke-linejoin="miter"/><path d="M113,233.91c-66.77675,0 -120.91,-54.13325 -120.91,-120.91v0c0,-66.77675 54.13325,-120.91 120.91,-120.91v0c66.77675,0 120.91,54.13325 120.91,120.91v0c0,66.77675 -54.13325,120.91 -120.91,120.91z" fill="none" fill-rule="nonzero" stroke="none" stroke-linejoin="miter"/><path d="M113,229.39c-64.28042,0 -116.39,-52.10958 -116.39,-116.39v0c0,-64.28042 52.10958,-116.39 116.39,-116.39h0c64.28042,0 116.39,52.10958 116.39,116.39v0c0,64.28042 -52.10958,116.39 -116.39,116.39z" fill="none" fill-rule="nonzero" stroke="none" stroke-linejoin="miter"/><path d="M113,233.91c-66.77675,0 -120.91,-54.13325 -120.91,-120.91v0c0,-66.77675 54.13325,-120.91 120.91,-120.91v0c66.77675,0 120.91,54.13325 120.91,120.91v0c0,66.77675 -54.13325,120.91 -120.91,120.91z" fill="none" fill-rule="nonzero" stroke="none" stroke-linejoin="miter"/><path d="M113,229.39c-64.28042,0 -116.39,-52.10958 -116.39,-116.39v0c0,-64.28042 52.10958,-116.39 116.39,-116.39h0c64.28042,0 116.39,52.10958 116.39,116.39v0c0,64.28042 -52.10958,116.39 -116.39,116.39z" fill="none" fill-rule="nonzero" stroke="none" stroke-linejoin="miter"/><path d="M113,233.91c-66.77675,0 -120.91,-54.13325 -120.91,-120.91v0c0,-66.77675 54.13325,-120.91 120.91,-120.91v0c66.77675,0 120.91,54.13325 120.91,120.91v0c0,66.77675 -54.13325,120.91 -120.91,120.91z" fill="none" fill-rule="nonzero" stroke="none" stroke-linejoin="miter"/><path d="M113,229.39c-64.28042,0 -116.39,-52.10958 -116.39,-116.39v0c0,-64.28042 52.10958,-116.39 116.39,-116.39h0c64.28042,0 116.39,52.10958 116.39,116.39v0c0,64.28042 -52.10958,116.39 -116.39,116.39z" fill="none" fill-rule="nonzero" stroke="none" stroke-linejoin="miter"/><path d="M113,233.91c-66.77675,0 -120.91,-54.13325 -120.91,-120.91v0c0,-66.77675 54.13325,-120.91 120.91,-120.91v0c66.77675,0 120.91,54.13325 120.91,120.91v0c0,66.77675 -54.13325,120.91 -120.91,120.91z" fill="none" fill-rule="nonzero" stroke="none" stroke-linejoin="miter"/><path d="M113,229.39c-64.28042,0 -116.39,-52.10958 -116.39,-116.39v0c0,-64.28042 52.10958,-116.39 116.39,-116.39h0c64.28042,0 116.39,52.10958 116.39,116.39v0c0,64.28042 -52.10958,116.39 -116.39,116.39z" fill="none" fill-rule="nonzero" stroke="none" stroke-linejoin="miter"/><path d="M113,233.91c-66.77675,0 -120.91,-54.13325 -120.91,-120.91v0c0,-66.77675 54.13325,-120.91 120.91,-120.91v0c66.77675,0 120.91,54.13325 120.91,120.91v0c0,66.77675 -54.13325,120.91 -120.91,120.91z" fill="none" fill-rule="nonzero" stroke="none" stroke-linejoin="miter"/><path d="M113,229.39c-64.28042,0 -116.39,-52.10958 -116.39,-116.39v0c0,-64.28042 52.10958,-116.39 116.39,-116.39h0c64.28042,0 116.39,52.10958 116.39,116.39v0c0,64.28042 -52.10958,116.39 -116.39,116.39z" fill="none" fill-rule="nonzero" stroke="none" stroke-linejoin="miter"/><path d="M113,233.91c-66.77675,0 -120.91,-54.13325 -120.91,-120.91v0c0,-66.77675 54.13325,-120.91 120.91,-120.91v0c66.77675,0 120.91,54.13325 120.91,120.91v0c0,66.77675 -54.13325,120.91 -120.91,120.91z" fill="none" fill-rule="nonzero" stroke="none" stroke-linejoin="miter"/><path d="M113,229.39c-64.28042,0 -116.39,-52.10958 -116.39,-116.39v0c0,-64.28042 52.10958,-116.39 116.39,-116.39h0c64.28042,0 116.39,52.10958 116.39,116.39v0c0,64.28042 -52.10958,116.39 -116.39,116.39z" fill="none" fill-rule="nonzero" stroke="none" stroke-linejoin="miter"/><path d="M113,233.91c-66.77675,0 -120.91,-54.13325 -120.91,-120.91v0c0,-66.77675 54.13325,-120.91 120.91,-120.91v0c66.77675,0 120.91,54.13325 120.91,120.91v0c0,66.77675 -54.13325,120.91 -120.91,120.91z" fill="none" fill-rule="nonzero" stroke="none" stroke-linejoin="miter"/><path d="M113,229.39c-64.28042,0 -116.39,-52.10958 -116.39,-116.39v0c0,-64.28042 52.10958,-116.39 116.39,-116.39h0c64.28042,0 116.39,52.10958 116.39,116.39v0c0,64.28042 -52.10958,116.39 -116.39,116.39z" fill="none" fill-rule="nonzero" stroke="none" stroke-linejoin="miter"/><path d="M113,233.91c-66.77675,0 -120.91,-54.13325 -120.91,-120.91v0c0,-66.77675 54.13325,-120.91 120.91,-120.91v0c66.77675,0 120.91,54.13325 120.91,120.91v0c0,66.77675 -54.13325,120.91 -120.91,120.91z" fill="none" fill-rule="nonzero" stroke="none" stroke-linejoin="miter"/><path d="M113,229.39c-64.28042,0 -116.39,-52.10958 -116.39,-116.39v0c0,-64.28042 52.10958,-116.39 116.39,-116.39h0c64.28042,0 116.39,52.10958 116.39,116.39v0c0,64.28042 -52.10958,116.39 -116.39,116.39z" fill="none" fill-rule="nonzero" stroke="none" stroke-linejoin="miter"/><path d="M113,233.91c-66.77675,0 -120.91,-54.13325 -120.91,-120.91v0c0,-66.77675 54.13325,-120.91 120.91,-120.91v0c66.77675,0 120.91,54.13325 120.91,120.91v0c0,66.77675 -54.13325,120.91 -120.91,120.91z" fill="none" fill-rule="nonzero" stroke="none" stroke-linejoin="miter"/><path d="M113,229.39c-64.28042,0 -116.39,-52.10958 -116.39,-116.39v0c0,-64.28042 52.10958,-116.39 116.39,-116.39h0c64.28042,0 116.39,52.10958 116.39,116.39v0c0,64.28042 -52.10958,116.39 -116.39,116.39z" fill="none" fill-rule="nonzero" stroke="none" stroke-linejoin="miter"/><path d="M113,233.91c-66.77675,0 -120.91,-54.13325 -120.91,-120.91v0c0,-66.77675 54.13325,-120.91 120.91,-120.91v0c66.77675,0 120.91,54.13325 120.91,120.91v0c0,66.77675 -54.13325,120.91 -120.91,120.91z" fill="none" fill-rule="nonzero" stroke="none" stroke-linejoin="miter"/><path d="M113,229.39c-64.28042,0 -116.39,-52.10958 -116.39,-116.39v0c0,-64.28042 52.10958,-116.39 116.39,-116.39h0c64.28042,0 116.39,52.10958 116.39,116.39v0c0,64.28042 -52.10958,116.39 -116.39,116.39z" fill="none" fill-rule="nonzero" stroke="none" stroke-linejoin="miter"/><path d="M113,233.91c-66.77675,0 -120.91,-54.13325 -120.91,-120.91v0c0,-66.77675 54.13325,-120.91 120.91,-120.91v0c66.77675,0 120.91,54.13325 120.91,120.91v0c0,66.77675 -54.13325,120.91 -120.91,120.91z" fill="none" fill-rule="nonzero" stroke="none" stroke-linejoin="miter"/><path d="M113,229.39c-64.28042,0 -116.39,-52.10958 -116.39,-116.39v0c0,-64.28042 52.10958,-116.39 116.39,-116.39h0c64.28042,0 116.39,52.10958 116.39,116.39v0c0,64.28042 -52.10958,116.39 -116.39,116.39z" fill="none" fill-rule="nonzero" stroke="none" stroke-linejoin="miter"/><path d="M113,233.91c-66.77675,0 -120.91,-54.13325 -120.91,-120.91v0c0,-66.77675 54.13325,-120.91 120.91,-120.91v0c66.77675,0 120.91,54.13325 120.91,120.91v0c0,66.77675 -54.13325,120.91 -120.91,120.91z" fill="none" fill-rule="nonzero" stroke="none" stroke-linejoin="miter"/><path d="M113,229.39c-64.28042,0 -116.39,-52.10958 -116.39,-116.39v0c0,-64.28042 52.10958,-116.39 116.39,-116.39h0c64.28042,0 116.39,52.10958 116.39,116.39v0c0,64.28042 -52.10958,116.39 -116.39,116.39z" fill="none" fill-rule="nonzero" stroke="none" stroke-linejoin="miter"/><path d="M113,233.91c-66.77675,0 -120.91,-54.13325 -120.91,-120.91v0c0,-66.77675 54.13325,-120.91 120.91,-120.91v0c66.77675,0 120.91,54.13325 120.91,120.91v0c0,66.77675 -54.13325,120.91 -120.91,120.91z" fill="none" fill-rule="nonzero" stroke="none" stroke-linejoin="miter"/><path d="M113,229.39c-64.28042,0 -116.39,-52.10958 -116.39,-116.39v0c0,-64.28042 52.10958,-116.39 116.39,-116.39h0c64.28042,0 116.39,52.10958 116.39,116.39v0c0,64.28042 -52.10958,116.39 -116.39,116.39z" fill="none" fill-rule="nonzero" stroke="none" stroke-linejoin="miter"/><path d="M113,233.91c-66.77675,0 -120.91,-54.13325 -120.91,-120.91v0c0,-66.77675 54.13325,-120.91 120.91,-120.91v0c66.77675,0 120.91,54.13325 120.91,120.91v0c0,66.77675 -54.13325,120.91 -120.91,120.91z" fill="none" fill-rule="nonzero" stroke="none" stroke-linejoin="miter"/><path d="M113,229.39c-64.28042,0 -116.39,-52.10958 -116.39,-116.39v0c0,-64.28042 52.10958,-116.39 116.39,-116.39h0c64.28042,0 116.39,52.10958 116.39,116.39v0c0,64.28042 -52.10958,116.39 -116.39,116.39z" fill="none" fill-rule="nonzero" stroke="none" stroke-linejoin="miter"/><path d="M0,226v-226h226v226z" fill="none" fill-rule="nonzero" stroke="none" stroke-linejoin="miter"/><path d="M4.52,221.48v-216.96h216.96v216.96z" fill="none" fill-rule="nonzero" stroke="none" stroke-linejoin="miter"/><path d="M113,233.91c-66.77675,0 -120.91,-54.13325 -120.91,-120.91v0c0,-66.77675 54.13325,-120.91 120.91,-120.91v0c66.77675,0 120.91,54.13325 120.91,120.91v0c0,66.77675 -54.13325,120.91 -120.91,120.91z" fill="none" fill-rule="nonzero" stroke="none" stroke-linejoin="miter"/><path d="M113,229.39c-64.28042,0 -116.39,-52.10958 -116.39,-116.39v0c0,-64.28042 52.10958,-116.39 116.39,-116.39h0c64.28042,0 116.39,52.10958 116.39,116.39v0c0,64.28042 -52.10958,116.39 -116.39,116.39z" fill="none" fill-rule="nonzero" stroke="none" stroke-linejoin="miter"/><path d="" fill="none" fill-rule="nonzero" stroke="none" stroke-linejoin="miter"/><path d="" fill="none" fill-rule="nonzero" stroke="none" stroke-linejoin="miter"/><path d="" fill="none" fill-rule="nonzero" stroke="none" stroke-linejoin="miter"/><path d="" fill="none" fill-rule="nonzero" stroke="none" stroke-linejoin="miter"/></g></g></svg>
